<svg xmlns="http://www.w3.org/2000/svg" xmlns:xlink="http://www.w3.org/1999/xlink" width="500" zoomAndPan="magnify" viewBox="0 0 375 374.999991" height="500" preserveAspectRatio="xMidYMid meet" version="1.0"><defs><g/><clipPath id="407d8f1961"><path d="M 147 40.753906 L 255 40.753906 L 255 178 L 147 178 Z M 147 40.753906 " clip-rule="nonzero"/></clipPath><clipPath id="4a9959b079"><path d="M 120 131 L 179 131 L 179 190.003906 L 120 190.003906 Z M 120 131 " clip-rule="nonzero"/></clipPath><clipPath id="0a8b464755"><path d="M 98.761719 26.605469 L 276.511719 26.605469 L 276.511719 204.355469 L 98.761719 204.355469 Z M 98.761719 26.605469 " clip-rule="nonzero"/></clipPath><clipPath id="8d1e631ba9"><path d="M 110.011719 26.605469 L 264.980469 26.605469 C 271.191406 26.605469 276.230469 31.644531 276.230469 37.855469 L 276.230469 193.222656 C 276.230469 199.4375 271.191406 204.472656 264.980469 204.472656 L 110.011719 204.472656 C 103.796875 204.472656 98.761719 199.4375 98.761719 193.222656 L 98.761719 37.855469 C 98.761719 31.644531 103.796875 26.605469 110.011719 26.605469 Z M 110.011719 26.605469 " clip-rule="nonzero"/></clipPath></defs><g clip-path="url(#407d8f1961)"><path fill="#ffffff" d="M 248.15625 177.476562 L 172.550781 177.476562 L 172.550781 173.328125 L 248.15625 173.328125 C 249.566406 173.328125 250.714844 172.1875 250.714844 170.777344 L 250.714844 70.039062 L 225.558594 44.882812 L 154.058594 44.882812 C 152.652344 44.882812 151.507812 46.03125 151.507812 47.457031 L 151.507812 56.003906 L 147.363281 56.003906 L 147.363281 47.457031 C 147.363281 43.746094 150.367188 40.734375 154.058594 40.734375 L 227.210938 40.734375 L 227.800781 41.261719 L 254.863281 68.324219 L 254.863281 170.777344 C 254.863281 174.472656 251.855469 177.476562 248.15625 177.476562 " fill-opacity="1" fill-rule="nonzero"/></g><path fill="#ffffff" d="M 151.507812 133.167969 L 147.363281 133.167969 L 147.363281 72.972656 L 151.507812 72.972656 L 151.507812 133.167969 " fill-opacity="1" fill-rule="nonzero"/><path fill="#ffffff" d="M 252.796875 71.253906 L 228.585938 71.253906 C 226.253906 71.253906 224.351562 69.359375 224.351562 67.019531 L 224.351562 42.808594 L 228.496094 42.808594 L 228.496094 67.019531 L 252.796875 67.109375 L 252.796875 71.253906 " fill-opacity="1" fill-rule="nonzero"/><path fill="#ffffff" d="M 143.707031 58.078125 C 142.414062 58.078125 141.359375 59.121094 141.359375 60.417969 L 141.359375 68.550781 C 141.359375 69.835938 142.414062 70.890625 143.707031 70.890625 L 201.332031 70.890625 C 202.625 70.890625 203.679688 69.835938 203.679688 68.550781 L 203.679688 60.417969 C 203.679688 59.121094 202.625 58.078125 201.332031 58.078125 Z M 201.332031 75.039062 L 143.707031 75.039062 C 140.128906 75.039062 137.210938 72.121094 137.210938 68.550781 L 137.210938 60.417969 C 137.210938 56.835938 140.128906 53.929688 143.707031 53.929688 L 201.332031 53.929688 C 204.910156 53.929688 207.828125 56.835938 207.828125 60.417969 L 207.828125 68.550781 C 207.828125 72.121094 204.910156 75.039062 201.332031 75.039062 " fill-opacity="1" fill-rule="nonzero"/><path fill="#ffffff" d="M 233.40625 92.566406 L 175.152344 92.566406 L 175.152344 88.417969 L 233.40625 88.417969 L 233.40625 92.566406 " fill-opacity="1" fill-rule="nonzero"/><path fill="#ffffff" d="M 233.40625 110.101562 L 175.152344 110.101562 L 175.152344 105.953125 L 233.40625 105.953125 L 233.40625 110.101562 " fill-opacity="1" fill-rule="nonzero"/><path fill="#ffffff" d="M 233.40625 127.636719 L 175.152344 127.636719 L 175.152344 123.492188 L 233.40625 123.492188 L 233.40625 127.636719 " fill-opacity="1" fill-rule="nonzero"/><path fill="#ffffff" d="M 233.40625 145.164062 L 175.152344 145.164062 L 175.152344 141.019531 L 233.40625 141.019531 L 233.40625 145.164062 " fill-opacity="1" fill-rule="nonzero"/><path fill="#ffffff" d="M 233.398438 162.695312 L 176.878906 162.695312 L 176.878906 158.546875 L 233.398438 158.546875 L 233.398438 162.695312 " fill-opacity="1" fill-rule="nonzero"/><path fill="#ffffff" d="M 144.550781 174.445312 L 135.066406 163.511719 L 138.199219 160.796875 L 144.484375 168.046875 L 160.644531 148.671875 L 163.835938 151.328125 L 144.550781 174.445312 " fill-opacity="1" fill-rule="nonzero"/><g clip-path="url(#4a9959b079)"><path fill="#ffffff" d="M 149.433594 135.242188 C 135.445312 135.242188 124.058594 146.632812 124.058594 160.621094 C 124.058594 174.617188 135.445312 185.996094 149.433594 185.996094 C 163.433594 185.996094 174.8125 174.617188 174.8125 160.621094 C 174.8125 146.632812 163.433594 135.242188 149.433594 135.242188 Z M 149.433594 190.144531 C 133.15625 190.144531 119.910156 176.902344 119.910156 160.621094 C 119.910156 144.347656 133.15625 131.097656 149.433594 131.097656 C 165.714844 131.097656 178.960938 144.347656 178.960938 160.621094 C 178.960938 176.902344 165.714844 190.144531 149.433594 190.144531 " fill-opacity="1" fill-rule="nonzero"/></g><g clip-path="url(#0a8b464755)"><g clip-path="url(#8d1e631ba9)"><path stroke-linecap="butt" transform="matrix(0.75, 0, 0, 0.75, 98.76139, 26.606743)" fill="none" stroke-linejoin="miter" d="M 15.000439 -0.00169854 L 221.625453 -0.00169854 C 229.906703 -0.00169854 236.625454 6.717052 236.625454 14.998302 L 236.625454 222.154566 C 236.625454 230.441025 229.906703 237.154567 221.625453 237.154567 L 15.000439 237.154567 C 6.71398 237.154567 0.000438314 230.441025 0.000438314 222.154566 L 0.000438314 14.998302 C 0.000438314 6.717052 6.71398 -0.00169854 15.000439 -0.00169854 Z M 15.000439 -0.00169854 " stroke="#ffffff" stroke-width="6" stroke-opacity="1" stroke-miterlimit="4"/></g></g><g fill="#ffffff" fill-opacity="1"><g transform="translate(45.853347, 263.57818)"><g><path d="M 12.046875 -33.765625 L 0.828125 -33.765625 L 0.828125 -38.5 L 28.484375 -38.5 L 28.484375 -33.765625 L 17.265625 -33.765625 L 17.265625 0 L 12.046875 0 Z M 12.046875 -33.765625 "/></g></g></g><g fill="#ffffff" fill-opacity="1"><g transform="translate(85.451032, 263.57818)"><g><path d="M 24.3125 -10.390625 L 9.5625 -10.390625 L 5.890625 0 L 0.390625 0 L 14.1875 -38.5 L 19.6875 -38.5 L 33.5 0 L 28 0 Z M 22.65625 -15.125 L 16.9375 -31.1875 L 11.21875 -15.125 Z M 22.65625 -15.125 "/></g></g></g><g fill="#ffffff" fill-opacity="1"><g transform="translate(129.613387, 263.57818)"><g><path d="M 4.40625 -38.5 L 16.890625 -38.5 C 21.066406 -38.5 24.328125 -37.535156 26.671875 -35.609375 C 29.015625 -33.679688 30.1875 -30.738281 30.1875 -26.78125 C 30.1875 -21.644531 27.953125 -18.035156 23.484375 -15.953125 L 32.125 0 L 25.734375 0 L 17.9375 -15.015625 L 9.90625 -15.015625 L 9.90625 0 L 4.40625 0 Z M 16.828125 -19.6875 C 19.398438 -19.6875 21.363281 -20.3125 22.71875 -21.5625 C 24.070312 -22.8125 24.75 -24.550781 24.75 -26.78125 C 24.75 -29.019531 24.078125 -30.753906 22.734375 -31.984375 C 21.398438 -33.210938 19.429688 -33.828125 16.828125 -33.828125 L 9.90625 -33.828125 L 9.90625 -19.6875 Z M 16.828125 -19.6875 "/></g></g></g><g fill="#ffffff" fill-opacity="1"><g transform="translate(173.060793, 263.57818)"><g><path d="M 4.40625 -38.5 L 27.890625 -38.5 L 27.890625 -33.765625 L 9.625 -33.765625 L 9.625 -22.5 L 24.140625 -22.5 L 24.140625 -17.765625 L 9.625 -17.765625 L 9.625 -4.734375 L 28.375 -4.734375 L 28.375 0 L 4.40625 0 Z M 4.40625 -38.5 "/></g></g></g><g fill="#ffffff" fill-opacity="1"><g transform="translate(213.813395, 263.57818)"><g><path d="M 4.40625 -38.5 L 27.890625 -38.5 L 27.890625 -33.765625 L 9.625 -33.765625 L 9.625 -22.5 L 23.703125 -22.5 L 23.703125 -17.765625 L 9.625 -17.765625 L 9.625 0 L 4.40625 0 Z M 4.40625 -38.5 "/></g></g></g><g fill="#ffffff" fill-opacity="1"><g transform="translate(252.861115, 263.57818)"><g><path d="M 24.3125 -10.390625 L 9.5625 -10.390625 L 5.890625 0 L 0.390625 0 L 14.1875 -38.5 L 19.6875 -38.5 L 33.5 0 L 28 0 Z M 22.65625 -15.125 L 16.9375 -31.1875 L 11.21875 -15.125 Z M 22.65625 -15.125 "/></g></g></g><g fill="#ffffff" fill-opacity="1"><g transform="translate(297.023473, 263.57818)"><g><path d="M 15.40625 0.765625 C 13.125 0.765625 10.8125 0.515625 8.46875 0.015625 C 6.125 -0.472656 4.238281 -1.046875 2.8125 -1.703125 L 3.515625 -7.265625 C 5.347656 -6.378906 7.421875 -5.601562 9.734375 -4.9375 C 12.046875 -4.28125 14.335938 -3.953125 16.609375 -3.953125 C 19.171875 -3.953125 21.15625 -4.421875 22.5625 -5.359375 C 23.976562 -6.296875 24.6875 -7.695312 24.6875 -9.5625 C 24.6875 -10.957031 24.328125 -12.125 23.609375 -13.0625 C 22.898438 -14 21.859375 -14.785156 20.484375 -15.421875 C 19.109375 -16.066406 17.191406 -16.753906 14.734375 -17.484375 C 12.242188 -18.222656 10.171875 -19.015625 8.515625 -19.859375 C 6.867188 -20.703125 5.539062 -21.851562 4.53125 -23.3125 C 3.53125 -24.78125 3.03125 -26.632812 3.03125 -28.875 C 3.03125 -31.988281 4.226562 -34.5 6.625 -36.40625 C 9.03125 -38.3125 12.414062 -39.265625 16.78125 -39.265625 C 19.125 -39.265625 21.347656 -39.007812 23.453125 -38.5 C 25.566406 -37.988281 27.410156 -37.363281 28.984375 -36.625 L 28.4375 -31.078125 C 26.382812 -32.285156 24.40625 -33.164062 22.5 -33.71875 C 20.59375 -34.269531 18.613281 -34.546875 16.5625 -34.546875 C 14.175781 -34.546875 12.273438 -34.101562 10.859375 -33.21875 C 9.453125 -32.34375 8.75 -30.988281 8.75 -29.15625 C 8.75 -27.90625 9.066406 -26.875 9.703125 -26.0625 C 10.347656 -25.257812 11.273438 -24.570312 12.484375 -24 C 13.691406 -23.4375 15.378906 -22.828125 17.546875 -22.171875 C 21.867188 -20.847656 25.09375 -19.273438 27.21875 -17.453125 C 29.351562 -15.640625 30.421875 -13.140625 30.421875 -9.953125 C 30.421875 -6.578125 29.15625 -3.945312 26.625 -2.0625 C 24.09375 -0.175781 20.351562 0.765625 15.40625 0.765625 Z M 15.40625 0.765625 "/></g></g></g><g fill="#ffffff" fill-opacity="1"><g transform="translate(101.004629, 299.828272)"><g><path d="M 1.578125 -1.125 C 2.222656 -1.226562 2.664062 -1.425781 2.90625 -1.71875 C 3.15625 -2.019531 3.28125 -2.53125 3.28125 -3.25 L 3.28125 -13.328125 C 3.28125 -13.859375 3.21875 -14.210938 3.09375 -14.390625 C 2.976562 -14.578125 2.738281 -14.671875 2.375 -14.671875 C 2.207031 -14.671875 2.046875 -14.660156 1.890625 -14.640625 C 1.734375 -14.628906 1.628906 -14.625 1.578125 -14.625 L 1.46875 -14.78125 L 1.65625 -16.03125 L 2.34375 -16 L 4.703125 -15.96875 C 5.148438 -15.96875 5.734375 -16 6.453125 -16.0625 C 7.179688 -16.125 7.664062 -16.160156 7.90625 -16.171875 L 7.78125 -14.78125 C 7.207031 -14.707031 6.804688 -14.601562 6.578125 -14.46875 C 6.359375 -14.34375 6.210938 -14.160156 6.140625 -13.921875 C 6.078125 -13.691406 6.03125 -13.273438 6 -12.671875 C 5.800781 -9.722656 5.703125 -6.570312 5.703125 -3.21875 C 5.703125 -2.6875 5.742188 -2.300781 5.828125 -2.0625 C 5.921875 -1.832031 6.097656 -1.675781 6.359375 -1.59375 C 6.617188 -1.507812 7.03125 -1.46875 7.59375 -1.46875 C 8.507812 -1.46875 9.191406 -1.554688 9.640625 -1.734375 C 10.097656 -1.910156 10.4375 -2.25 10.65625 -2.75 C 10.882812 -3.25 11.082031 -4.050781 11.25 -5.15625 L 12.78125 -5.296875 L 12.90625 -5.125 C 12.851562 -4.84375 12.742188 -4.195312 12.578125 -3.1875 C 12.421875 -2.175781 12.296875 -1.101562 12.203125 0.03125 L 12.03125 0.21875 C 11.5625 0.1875 10.570312 0.140625 9.0625 0.078125 C 7.550781 0.0234375 6.253906 0 5.171875 0 C 4.328125 0 3.539062 0.03125 2.8125 0.09375 C 2.082031 0.164062 1.617188 0.21875 1.421875 0.25 Z M 1.578125 -1.125 "/></g></g></g><g fill="#ffffff" fill-opacity="1"><g transform="translate(125.20247, 299.828272)"><g><path d="M 8.046875 0.296875 C 6.234375 0.296875 4.847656 -0.164062 3.890625 -1.09375 C 2.929688 -2.03125 2.453125 -3.390625 2.453125 -5.171875 L 2.453125 -13.328125 C 2.453125 -13.859375 2.390625 -14.210938 2.265625 -14.390625 C 2.148438 -14.578125 1.921875 -14.671875 1.578125 -14.671875 C 1.410156 -14.671875 1.242188 -14.660156 1.078125 -14.640625 C 0.910156 -14.628906 0.800781 -14.625 0.75 -14.625 L 0.703125 -14.71875 L 0.875 -16.046875 C 1.09375 -16.035156 1.507812 -16.019531 2.125 -16 C 2.738281 -15.976562 3.378906 -15.96875 4.046875 -15.96875 C 4.484375 -15.96875 5.007812 -16 5.625 -16.0625 C 6.238281 -16.125 6.640625 -16.160156 6.828125 -16.171875 L 6.671875 -14.796875 C 6.085938 -14.734375 5.695312 -14.597656 5.5 -14.390625 C 5.300781 -14.191406 5.191406 -13.867188 5.171875 -13.421875 L 4.96875 -6.09375 C 4.96875 -4.613281 5.289062 -3.472656 5.9375 -2.671875 C 6.582031 -1.867188 7.503906 -1.46875 8.703125 -1.46875 C 9.898438 -1.46875 10.816406 -1.789062 11.453125 -2.4375 C 12.085938 -3.09375 12.40625 -4.046875 12.40625 -5.296875 C 12.382812 -6.617188 12.359375 -8.113281 12.328125 -9.78125 C 12.304688 -11.457031 12.289062 -12.640625 12.28125 -13.328125 C 12.238281 -13.890625 12.164062 -14.253906 12.0625 -14.421875 C 11.957031 -14.585938 11.738281 -14.671875 11.40625 -14.671875 C 11.21875 -14.671875 11.023438 -14.660156 10.828125 -14.640625 C 10.628906 -14.628906 10.492188 -14.625 10.421875 -14.625 L 10.375 -14.71875 L 10.578125 -16.046875 C 10.773438 -16.046875 11.15625 -16.03125 11.71875 -16 C 12.289062 -15.976562 12.859375 -15.96875 13.421875 -15.96875 C 13.910156 -15.96875 14.4375 -16 15 -16.0625 C 15.5625 -16.125 15.925781 -16.160156 16.09375 -16.171875 L 15.96875 -14.828125 C 15.488281 -14.742188 15.140625 -14.65625 14.921875 -14.5625 C 14.703125 -14.46875 14.550781 -14.34375 14.46875 -14.1875 C 14.382812 -14.03125 14.34375 -13.785156 14.34375 -13.453125 L 14.34375 -5.328125 C 14.34375 -3.523438 13.796875 -2.132812 12.703125 -1.15625 C 11.617188 -0.1875 10.066406 0.296875 8.046875 0.296875 Z M 8.046875 0.296875 "/></g></g></g><g fill="#ffffff" fill-opacity="1"><g transform="translate(153.224709, 299.828272)"><g><path d="M 1.375 -1.09375 C 2.125 -1.226562 2.628906 -1.441406 2.890625 -1.734375 C 3.148438 -2.023438 3.28125 -2.53125 3.28125 -3.25 L 3.296875 -13.328125 C 3.296875 -13.859375 3.238281 -14.210938 3.125 -14.390625 C 3.007812 -14.578125 2.773438 -14.671875 2.421875 -14.671875 C 2.253906 -14.671875 2.085938 -14.660156 1.921875 -14.640625 C 1.753906 -14.628906 1.644531 -14.625 1.59375 -14.625 L 1.5 -14.78125 L 1.703125 -16.046875 C 1.953125 -16.035156 2.453125 -16.019531 3.203125 -16 C 3.953125 -15.976562 4.769531 -15.96875 5.65625 -15.96875 C 9 -15.96875 11.335938 -16.070312 12.671875 -16.28125 L 12.796875 -16.078125 C 12.742188 -15.835938 12.65625 -15.289062 12.53125 -14.4375 C 12.40625 -13.582031 12.3125 -12.671875 12.25 -11.703125 L 10.59375 -11.578125 C 10.59375 -11.660156 10.601562 -11.804688 10.625 -12.015625 C 10.644531 -12.234375 10.65625 -12.453125 10.65625 -12.671875 C 10.65625 -13.203125 10.585938 -13.582031 10.453125 -13.8125 C 10.316406 -14.039062 10.046875 -14.191406 9.640625 -14.265625 C 9.234375 -14.335938 8.550781 -14.375 7.59375 -14.375 C 7.082031 -14.375 6.722656 -14.359375 6.515625 -14.328125 C 6.316406 -14.296875 6.1875 -14.21875 6.125 -14.09375 C 6.070312 -13.96875 6.039062 -13.753906 6.03125 -13.453125 L 5.828125 -8.59375 L 8.296875 -8.578125 C 8.617188 -8.578125 9.085938 -8.609375 9.703125 -8.671875 C 10.316406 -8.742188 10.722656 -8.796875 10.921875 -8.828125 L 11.078125 -8.65625 L 10.71875 -6.875 C 10.519531 -6.894531 10.125 -6.910156 9.53125 -6.921875 C 8.945312 -6.941406 8.335938 -6.953125 7.703125 -6.953125 C 7.085938 -6.953125 6.445312 -6.894531 5.78125 -6.78125 L 5.703125 -3.125 C 5.703125 -2.457031 5.769531 -2.015625 5.90625 -1.796875 C 6.050781 -1.578125 6.34375 -1.46875 6.78125 -1.46875 C 7.113281 -1.46875 7.445312 -1.476562 7.78125 -1.5 C 8.125 -1.53125 8.363281 -1.554688 8.5 -1.578125 L 8.59375 -1.40625 L 8.375 0.09375 C 8.101562 0.0820312 7.59375 0.0625 6.84375 0.03125 C 6.09375 0.0078125 5.335938 0 4.578125 0 C 3.941406 0 3.273438 0.0390625 2.578125 0.125 C 1.878906 0.207031 1.425781 0.265625 1.21875 0.296875 Z M 1.375 -1.09375 "/></g></g></g><g fill="#ffffff" fill-opacity="1"><g transform="translate(177.522534, 299.828272)"><g><path d="M 13.59375 -4.421875 C 13.300781 -3.109375 13.070312 -1.644531 12.90625 -0.03125 L 12.71875 0.171875 C 9.375 0.0546875 6.828125 0 5.078125 0 C 3.753906 0 2.46875 0.0820312 1.21875 0.25 L 1.375 -1.125 C 2.101562 -1.226562 2.601562 -1.425781 2.875 -1.71875 C 3.144531 -2.019531 3.28125 -2.53125 3.28125 -3.25 L 3.296875 -13.328125 C 3.296875 -13.859375 3.238281 -14.210938 3.125 -14.390625 C 3.007812 -14.578125 2.773438 -14.671875 2.421875 -14.671875 L 1.59375 -14.625 L 1.5 -14.78125 L 1.703125 -16.046875 C 3.648438 -15.992188 4.96875 -15.96875 5.65625 -15.96875 C 7.582031 -15.96875 9.125 -15.988281 10.28125 -16.03125 C 11.445312 -16.070312 12.421875 -16.15625 13.203125 -16.28125 L 13.328125 -16.078125 C 13.191406 -15.460938 13.066406 -14.753906 12.953125 -13.953125 C 12.847656 -13.148438 12.78125 -12.414062 12.75 -11.75 L 11.078125 -11.625 L 11.125 -12.671875 C 11.125 -13.203125 11.046875 -13.582031 10.890625 -13.8125 C 10.742188 -14.039062 10.441406 -14.191406 9.984375 -14.265625 C 9.523438 -14.335938 8.726562 -14.375 7.59375 -14.375 C 7.082031 -14.375 6.722656 -14.359375 6.515625 -14.328125 C 6.316406 -14.296875 6.1875 -14.21875 6.125 -14.09375 C 6.070312 -13.96875 6.039062 -13.753906 6.03125 -13.453125 L 5.828125 -9.03125 L 8.296875 -9 C 8.660156 -9 9.125 -9.023438 9.6875 -9.078125 C 10.25 -9.128906 10.785156 -9.1875 11.296875 -9.25 L 11.421875 -9.078125 L 11.078125 -7.296875 C 9.328125 -7.347656 8.203125 -7.375 7.703125 -7.375 C 7.210938 -7.375 6.570312 -7.320312 5.78125 -7.21875 L 5.703125 -2.96875 C 5.703125 -2.507812 5.738281 -2.175781 5.8125 -1.96875 C 5.882812 -1.769531 6.035156 -1.632812 6.265625 -1.5625 C 6.503906 -1.5 6.914062 -1.46875 7.5 -1.46875 C 8.75 -1.46875 9.648438 -1.535156 10.203125 -1.671875 C 10.753906 -1.804688 11.144531 -2.066406 11.375 -2.453125 C 11.601562 -2.847656 11.785156 -3.515625 11.921875 -4.453125 L 13.46875 -4.59375 Z M 13.59375 -4.421875 "/></g></g></g><g fill="#ffffff" fill-opacity="1"><g transform="translate(203.620074, 299.828272)"><g><path d="M 8.328125 0.296875 C 6.804688 0.296875 5.488281 -0.015625 4.375 -0.640625 C 3.257812 -1.273438 2.394531 -2.179688 1.78125 -3.359375 C 1.175781 -4.535156 0.875 -5.914062 0.875 -7.5 C 0.875 -9.195312 1.238281 -10.710938 1.96875 -12.046875 C 2.707031 -13.378906 3.738281 -14.414062 5.0625 -15.15625 C 6.382812 -15.90625 7.894531 -16.28125 9.59375 -16.28125 C 10.21875 -16.28125 10.863281 -16.234375 11.53125 -16.140625 C 12.207031 -16.046875 12.78125 -15.953125 13.25 -15.859375 C 13.71875 -15.765625 14.019531 -15.703125 14.15625 -15.671875 L 14.28125 -15.453125 C 14.238281 -15.347656 14.175781 -15.09375 14.09375 -14.6875 C 14.007812 -14.28125 13.921875 -13.75 13.828125 -13.09375 C 13.742188 -12.445312 13.675781 -11.757812 13.625 -11.03125 L 11.875 -10.90625 C 11.894531 -10.988281 11.910156 -11.144531 11.921875 -11.375 C 11.941406 -11.601562 11.953125 -11.867188 11.953125 -12.171875 C 11.953125 -13.660156 10.859375 -14.40625 8.671875 -14.40625 C 7.160156 -14.40625 5.972656 -13.867188 5.109375 -12.796875 C 4.253906 -11.734375 3.828125 -10.25 3.828125 -8.34375 C 3.828125 -6.925781 4.035156 -5.695312 4.453125 -4.65625 C 4.867188 -3.613281 5.453125 -2.8125 6.203125 -2.25 C 6.960938 -1.695312 7.851562 -1.421875 8.875 -1.421875 C 9.90625 -1.421875 10.722656 -1.71875 11.328125 -2.3125 C 11.941406 -2.914062 12.382812 -3.863281 12.65625 -5.15625 L 14.40625 -5.296875 C 14.351562 -5.035156 14.253906 -4.445312 14.109375 -3.53125 C 13.972656 -2.613281 13.867188 -1.753906 13.796875 -0.953125 L 13.625 -0.703125 C 13.625 -0.679688 13.359375 -0.582031 12.828125 -0.40625 C 12.296875 -0.238281 11.632812 -0.0820312 10.84375 0.0625 C 10.0625 0.21875 9.222656 0.296875 8.328125 0.296875 Z M 8.328125 0.296875 "/></g></g></g><g fill="#ffffff" fill-opacity="1"><g transform="translate(230.4175, 299.828272)"><g><path d="M 12.828125 0.40625 C 12.359375 0.40625 11.882812 0.203125 11.40625 -0.203125 C 10.9375 -0.617188 10.507812 -1.203125 10.125 -1.953125 L 7.703125 -6.59375 L 5.75 -6.59375 L 5.703125 -3.28125 C 5.703125 -2.65625 5.742188 -2.207031 5.828125 -1.9375 C 5.910156 -1.675781 6.066406 -1.503906 6.296875 -1.421875 C 6.535156 -1.335938 6.9375 -1.289062 7.5 -1.28125 L 7.546875 -1.171875 L 7.328125 0.09375 C 7.078125 0.0820312 6.617188 0.0664062 5.953125 0.046875 C 5.296875 0.0351562 4.644531 0.03125 4 0.03125 C 3.46875 0.03125 2.910156 0.0390625 2.328125 0.0625 C 1.742188 0.0820312 1.367188 0.101562 1.203125 0.125 L 1.421875 -1.25 C 2.171875 -1.332031 2.664062 -1.503906 2.90625 -1.765625 C 3.15625 -2.035156 3.28125 -2.53125 3.28125 -3.25 L 3.296875 -13.375 C 3.296875 -13.894531 3.234375 -14.238281 3.109375 -14.40625 C 2.984375 -14.582031 2.753906 -14.671875 2.421875 -14.671875 C 2.242188 -14.671875 2.070312 -14.660156 1.90625 -14.640625 C 1.738281 -14.628906 1.628906 -14.625 1.578125 -14.625 L 1.46875 -14.75 L 1.671875 -16.046875 C 1.890625 -16.046875 2.289062 -16.03125 2.875 -16 C 3.457031 -15.976562 4.03125 -15.96875 4.59375 -15.96875 C 5.21875 -15.96875 5.875 -15.976562 6.5625 -16 C 7.25 -16.03125 7.726562 -16.054688 8 -16.078125 C 9.695312 -16.078125 11.023438 -15.71875 11.984375 -15 C 12.941406 -14.28125 13.421875 -13.28125 13.421875 -12 C 13.421875 -11.019531 13.113281 -10.113281 12.5 -9.28125 C 11.882812 -8.445312 11.007812 -7.757812 9.875 -7.21875 L 12.375 -3.21875 C 12.851562 -2.4375 13.3125 -1.882812 13.75 -1.5625 C 14.195312 -1.25 14.726562 -1.09375 15.34375 -1.09375 L 15.46875 -0.921875 L 15.296875 0.125 Z M 8.25 -8.09375 C 8.632812 -8.257812 8.972656 -8.429688 9.265625 -8.609375 C 9.554688 -8.785156 9.867188 -9.125 10.203125 -9.625 C 10.535156 -10.125 10.703125 -10.765625 10.703125 -11.546875 C 10.703125 -13.578125 9.300781 -14.59375 6.5 -14.59375 C 6.332031 -14.59375 6.21875 -14.554688 6.15625 -14.484375 C 6.101562 -14.410156 6.066406 -14.257812 6.046875 -14.03125 C 5.898438 -11.738281 5.816406 -9.84375 5.796875 -8.34375 Z M 8.25 -8.09375 "/></g></g></g><g fill="#ffffff" fill-opacity="1"><g transform="translate(257.314914, 299.828272)"><g><path d="M 8.953125 0 L 9.078125 -1.203125 C 9.660156 -1.234375 10.082031 -1.304688 10.34375 -1.421875 C 10.613281 -1.535156 10.75 -1.726562 10.75 -2 C 10.75 -2.25 10.597656 -2.582031 10.296875 -3 L 7.828125 -6.71875 L 5.796875 -3.96875 C 5.367188 -3.375 5.078125 -2.945312 4.921875 -2.6875 C 4.773438 -2.425781 4.703125 -2.195312 4.703125 -2 C 4.703125 -1.769531 4.804688 -1.59375 5.015625 -1.46875 C 5.234375 -1.351562 5.578125 -1.28125 6.046875 -1.25 L 6.125 -1.09375 L 5.96875 0.15625 C 5.738281 0.132812 5.28125 0.101562 4.59375 0.0625 C 3.914062 0.0195312 3.382812 0 3 0 C 2.445312 0 1.910156 0.0078125 1.390625 0.03125 C 0.878906 0.0625 0.53125 0.0820312 0.34375 0.09375 L 0.25 -0.09375 L 0.421875 -1.328125 C 1.023438 -1.523438 1.625 -1.898438 2.21875 -2.453125 C 2.820312 -3.015625 3.507812 -3.78125 4.28125 -4.75 L 6.921875 -8.09375 L 3.90625 -12.59375 C 3.46875 -13.226562 2.984375 -13.707031 2.453125 -14.03125 C 1.929688 -14.363281 1.296875 -14.585938 0.546875 -14.703125 L 0.5 -14.796875 L 0.65625 -16.046875 C 0.90625 -16.035156 1.394531 -16.019531 2.125 -16 C 2.851562 -15.976562 3.617188 -15.96875 4.421875 -15.96875 C 5.171875 -15.96875 5.90625 -16 6.625 -16.0625 C 7.34375 -16.125 7.800781 -16.160156 8 -16.171875 L 8.078125 -15.96875 L 8 -14.84375 C 7.382812 -14.8125 6.9375 -14.726562 6.65625 -14.59375 C 6.382812 -14.46875 6.25 -14.28125 6.25 -14.03125 C 6.25 -13.820312 6.453125 -13.378906 6.859375 -12.703125 C 7.265625 -12.035156 7.910156 -11.023438 8.796875 -9.671875 L 9.671875 -10.875 C 10.328125 -11.738281 10.832031 -12.441406 11.1875 -12.984375 C 11.539062 -13.523438 11.71875 -13.90625 11.71875 -14.125 C 11.71875 -14.34375 11.613281 -14.503906 11.40625 -14.609375 C 11.195312 -14.722656 10.851562 -14.796875 10.375 -14.828125 L 10.328125 -14.921875 L 10.46875 -16.125 L 11.171875 -16.078125 C 11.421875 -16.054688 11.789062 -16.03125 12.28125 -16 C 12.78125 -15.976562 13.171875 -15.96875 13.453125 -15.96875 C 13.898438 -15.96875 14.398438 -15.976562 14.953125 -16 C 15.515625 -16.03125 15.878906 -16.054688 16.046875 -16.078125 L 16.15625 -15.90625 L 16 -14.703125 C 15.269531 -14.515625 14.695312 -14.242188 14.28125 -13.890625 C 13.863281 -13.546875 13.320312 -12.941406 12.65625 -12.078125 L 9.75 -8.296875 L 13.09375 -3.453125 C 13.5625 -2.765625 14.050781 -2.257812 14.5625 -1.9375 C 15.082031 -1.613281 15.71875 -1.414062 16.46875 -1.34375 L 16.53125 -1.25 L 16.34375 0.078125 C 16.113281 0.0546875 15.691406 0.0351562 15.078125 0.015625 C 14.460938 0.00390625 13.828125 0 13.171875 0 C 12.609375 0 11.851562 0.0234375 10.90625 0.078125 C 9.96875 0.128906 9.347656 0.160156 9.046875 0.171875 Z M 8.953125 0 "/></g></g></g></svg>