<svg xmlns="http://www.w3.org/2000/svg" xmlns:xlink="http://www.w3.org/1999/xlink" width="500" zoomAndPan="magnify" viewBox="0 0 375 374.999991" height="500" preserveAspectRatio="xMidYMid meet" version="1.0"><defs><clipPath id="0a0c358322"><path d="M 111 45.597656 L 315.933594 45.597656 L 315.933594 306 L 111 306 Z M 111 45.597656 " clip-rule="nonzero"/></clipPath><clipPath id="8d91e9e3ba"><path d="M 59.433594 217 L 172 217 L 172 329.097656 L 59.433594 329.097656 Z M 59.433594 217 " clip-rule="nonzero"/></clipPath><clipPath id="a59d74b0dc"><path d="M 19.140625 18.757812 L 355.886719 18.757812 L 355.886719 356.257812 L 19.140625 356.257812 Z M 19.140625 18.757812 " clip-rule="nonzero"/></clipPath><clipPath id="8ec1fed5a0"><path d="M 30.390625 18.757812 L 344.609375 18.757812 C 347.59375 18.757812 350.453125 19.941406 352.5625 22.050781 C 354.671875 24.160156 355.859375 27.023438 355.859375 30.007812 L 355.859375 344.984375 C 355.859375 347.96875 354.671875 350.828125 352.5625 352.9375 C 350.453125 355.046875 347.59375 356.234375 344.609375 356.234375 L 30.390625 356.234375 C 27.40625 356.234375 24.542969 355.046875 22.433594 352.9375 C 20.324219 350.828125 19.140625 347.96875 19.140625 344.984375 L 19.140625 30.007812 C 19.140625 27.023438 20.324219 24.160156 22.433594 22.050781 C 24.542969 19.941406 27.40625 18.757812 30.390625 18.757812 Z M 30.390625 18.757812 " clip-rule="nonzero"/></clipPath></defs><g clip-path="url(#0a0c358322)"><path fill="#ffffff" d="M 302.59375 305.003906 L 159.144531 305.003906 L 159.144531 297.136719 L 302.59375 297.136719 C 305.269531 297.136719 307.449219 294.96875 307.449219 292.296875 L 307.449219 101.15625 L 259.714844 53.421875 L 124.058594 53.421875 C 121.382812 53.421875 119.21875 55.605469 119.21875 58.308594 L 119.21875 74.523438 L 111.347656 74.523438 L 111.347656 58.308594 C 111.347656 51.273438 117.050781 45.554688 124.058594 45.554688 L 262.851562 45.554688 L 263.972656 46.554688 L 315.320312 97.898438 L 315.320312 292.296875 C 315.320312 299.304688 309.617188 305.003906 302.59375 305.003906 " fill-opacity="1" fill-rule="nonzero"/></g><path fill="#ffffff" d="M 119.21875 220.941406 L 111.347656 220.941406 L 111.347656 106.722656 L 119.21875 106.722656 L 119.21875 220.941406 " fill-opacity="1" fill-rule="nonzero"/><path fill="#ffffff" d="M 311.398438 103.464844 L 265.464844 103.464844 C 261.039062 103.464844 257.425781 99.867188 257.425781 95.425781 L 257.425781 49.488281 L 265.292969 49.488281 L 265.292969 95.425781 L 311.398438 95.59375 L 311.398438 103.464844 " fill-opacity="1" fill-rule="nonzero"/><path fill="#ffffff" d="M 104.417969 78.457031 C 101.957031 78.457031 99.960938 80.441406 99.960938 82.898438 L 99.960938 98.328125 C 99.960938 100.773438 101.957031 102.773438 104.417969 102.773438 L 213.75 102.773438 C 216.207031 102.773438 218.207031 100.773438 218.207031 98.328125 L 218.207031 82.898438 C 218.207031 80.441406 216.207031 78.457031 213.75 78.457031 Z M 213.75 110.640625 L 104.417969 110.640625 C 97.625 110.640625 92.09375 105.109375 92.09375 98.328125 L 92.09375 82.898438 C 92.09375 76.105469 97.625 70.589844 104.417969 70.589844 L 213.75 70.589844 C 220.542969 70.589844 226.074219 76.105469 226.074219 82.898438 L 226.074219 98.328125 C 226.074219 105.109375 220.542969 110.640625 213.75 110.640625 " fill-opacity="1" fill-rule="nonzero"/><path fill="#ffffff" d="M 274.609375 143.898438 L 164.078125 143.898438 L 164.078125 136.027344 L 274.609375 136.027344 L 274.609375 143.898438 " fill-opacity="1" fill-rule="nonzero"/><path fill="#ffffff" d="M 274.609375 177.171875 L 164.078125 177.171875 L 164.078125 169.300781 L 274.609375 169.300781 L 274.609375 177.171875 " fill-opacity="1" fill-rule="nonzero"/><path fill="#ffffff" d="M 274.609375 210.441406 L 164.078125 210.441406 L 164.078125 202.574219 L 274.609375 202.574219 L 274.609375 210.441406 " fill-opacity="1" fill-rule="nonzero"/><path fill="#ffffff" d="M 274.609375 243.699219 L 164.078125 243.699219 L 164.078125 235.832031 L 274.609375 235.832031 L 274.609375 243.699219 " fill-opacity="1" fill-rule="nonzero"/><path fill="#ffffff" d="M 274.59375 276.957031 L 167.351562 276.957031 L 167.351562 269.089844 L 274.59375 269.089844 L 274.59375 276.957031 " fill-opacity="1" fill-rule="nonzero"/><path fill="#ffffff" d="M 106.015625 299.257812 L 88.019531 278.511719 L 93.96875 273.363281 L 105.894531 287.117188 L 136.554688 250.355469 L 142.609375 255.394531 L 106.015625 299.257812 " fill-opacity="1" fill-rule="nonzero"/><g clip-path="url(#8d91e9e3ba)"><path fill="#ffffff" d="M 115.28125 224.875 C 88.742188 224.875 67.132812 246.480469 67.132812 273.023438 C 67.132812 299.582031 88.742188 321.171875 115.28125 321.171875 C 141.839844 321.171875 163.433594 299.582031 163.433594 273.023438 C 163.433594 246.480469 141.839844 224.875 115.28125 224.875 Z M 115.28125 329.042969 C 84.390625 329.042969 59.265625 303.914062 59.265625 273.023438 C 59.265625 242.148438 84.390625 217.003906 115.28125 217.003906 C 146.171875 217.003906 171.300781 242.148438 171.300781 273.023438 C 171.300781 303.914062 146.171875 329.042969 115.28125 329.042969 " fill-opacity="1" fill-rule="nonzero"/></g><g clip-path="url(#a59d74b0dc)"><g clip-path="url(#8ec1fed5a0)"><path stroke-linecap="butt" transform="matrix(0.75, 0, 0, 0.75, 19.140051, 18.756968)" fill="none" stroke-linejoin="miter" d="M 15.000767 0.00112647 L 433.959127 0.00112647 C 437.938294 0.00112647 441.750795 1.579252 444.563295 4.391752 C 447.375795 7.204252 448.959128 11.021961 448.959128 15.001127 L 448.959128 434.969905 C 448.959128 438.949072 447.375795 442.761572 444.563295 445.574072 C 441.750795 448.386573 437.938294 449.969906 433.959127 449.969906 L 15.000767 449.969906 C 11.0216 449.969906 7.203891 448.386573 4.391391 445.574072 C 1.578891 442.761572 0.000765649 438.949072 0.000765649 434.969905 L 0.000765649 15.001127 C 0.000765649 11.021961 1.578891 7.204252 4.391391 4.391752 C 7.203891 1.579252 11.0216 0.00112647 15.000767 0.00112647 Z M 15.000767 0.00112647 " stroke="#ffffff" stroke-width="6" stroke-opacity="1" stroke-miterlimit="4"/></g></g></svg>